PathFileType	3	(X/Y/Z)	dance_move_1__view2_aligned.trc
DataRate	CameraRate	NumFrames	NumMarkers	Units	OrigDataRate	OrigDataStartFrame	OrigNumFrames
100.0	100.0	14	19	mm	100.0	800	890
Frame#	Time	pelvis			neck			head			hip_left			hip_right			knee_left			knee_right			ankle_left			ankle_right			heel_left			heel_right			toe_left			toe_right			shoulder_left			shoulder_right			elbow_left			elbow_right			wrist_left			wrist_right			
		X1	Y1	Z1	X2	Y2	Z2	X3	Y3	Z3	X4	Y4	Z4	X5	Y5	Z5	X6	Y6	Z6	X7	Y7	Z7	X8	Y8	Z8	X9	Y9	Z9	X10	Y10	Z10	X11	Y11	Z11	X12	Y12	Z12	X13	Y13	Z13	X14	Y14	Z14	X15	Y15	Z15	X16	Y16	Z16	X17	Y17	Z17	X18	Y18	Z18	X19	Y19	Z19	
800	7.99000	122.958923	945.125888	97.954941	115.806120	1521.269299	4.045502	110.899182	1672.995481	-90.659177	46.689021	940.419243	102.597630	199.228536	949.832482	93.312214	-35.564773	518.296066	15.602057	260.212011	532.299306	-27.453724	-48.978003	121.430178	111.870242	294.090028	129.638236	26.441236	-44.342817	74.747897	148.122107	291.174826	79.229215	58.450178	-69.908317	58.952081	-71.962447	331.383583	89.396470	-160.352824	-58.030343	1466.867079	31.061394	290.749720	1451.364448	24.720530	-158.997256	1192.232839	13.583479	376.153285	1168.855060	-1.216063	-228.181763	975.533093	-97.892702	413.488364	934.194416	-121.177264
801	8.00000	123.211026	947.580791	97.998708	114.448962	1523.874576	5.868817	108.978121	1675.829873	-88.408992	46.987019	942.823051	102.460569	199.434648	952.338484	93.536798	-32.116810	518.841162	18.566489	258.895574	533.446172	-25.211096	-46.314789	121.855473	114.895343	292.537986	130.215963	26.658168	-41.953170	75.198834	151.242573	289.631782	79.696155	58.510119	-66.088371	59.037928	-68.999780	329.300184	90.194186	-160.397707	-59.081736	1468.634923	32.227325	289.540567	1454.796615	26.835983	-156.942380	1193.255421	14.850151	375.131725	1172.503634	0.912326	-221.300820	976.912898	-98.394786	412.760145	938.203807	-119.648178
802	8.01000	123.463129	950.035695	98.042476	113.091804	1526.479853	7.692132	107.057060	1678.664265	-86.158808	47.285016	945.226858	102.323508	199.640760	954.844487	93.761382	-28.668847	519.386258	21.530921	257.579137	534.593038	-22.968468	-43.651574	122.280768	117.920444	290.985944	130.793689	26.875100	-39.563523	75.649770	154.363038	288.088738	80.163095	58.570061	-62.268426	59.123774	-66.037113	327.216786	90.991902	-160.442590	-60.133129	1470.402767	33.393257	288.331414	1458.228782	28.951436	-154.887503	1194.278004	16.116823	374.110165	1176.152209	3.040715	-214.419876	978.292704	-98.896870	412.031926	942.213199	-118.119093
803	8.02000	122.994719	951.190155	98.793243	111.520518	1527.873452	9.613587	105.210942	1680.379136	-83.988746	46.857559	946.356321	102.839987	199.131398	956.023945	94.746434	-26.235964	519.535076	24.543931	256.609641	535.382046	-21.293809	-41.078227	122.258201	121.144927	290.446444	131.161726	27.023986	-37.210431	75.611164	157.639324	287.614315	80.417929	58.562479	-58.280024	59.174217	-62.851196	326.438174	91.753011	-160.482193	-61.702903	1471.230218	34.744120	286.988864	1460.169530	31.056980	-152.916069	1193.844254	16.946673	372.753346	1177.801757	5.432495	-206.053916	977.390834	-100.039183	409.781049	943.357825	-115.773277
804	8.03000	122.526309	952.344616	99.544009	109.949232	1529.267051	11.535041	103.364825	1682.094008	-81.818684	46.430101	947.485784	103.356466	198.622036	957.203403	95.731487	-23.803081	519.683895	27.556941	255.640146	536.171053	-19.619151	-38.504879	122.235634	124.369410	289.906945	131.529763	27.172872	-34.857338	75.572559	160.915609	287.139892	80.672762	58.554896	-54.291622	59.224659	-59.665279	325.659563	92.514121	-160.521796	-63.272677	1472.057669	36.094983	285.646313	1462.110278	33.162524	-150.944634	1193.410504	17.776524	371.396527	1179.451306	7.824274	-197.687956	976.488964	-101.181496	407.530173	944.502452	-113.427462
805	8.04000	122.057899	953.499076	100.294776	108.377946	1530.660650	13.456496	101.518708	1683.808879	-79.648623	46.002644	948.615247	103.872944	198.112674	958.382861	96.716539	-21.370199	519.832713	30.569952	254.670650	536.960061	-17.944493	-35.931532	122.213067	127.593894	289.367445	131.897799	27.321759	-32.504245	75.533953	164.191895	286.665469	80.927596	58.547314	-50.303220	59.275101	-56.479361	324.880952	93.275230	-160.561399	-64.842451	1472.885120	37.445846	284.303763	1464.051026	35.268068	-148.973199	1192.976754	18.606374	370.039709	1181.100855	10.216053	-189.321995	975.587094	-102.323809	405.279297	945.647078	-111.081646
806	8.05000	121.589489	954.653537	101.045543	106.806660	1532.054248	15.377951	99.672591	1685.523750	-77.478561	45.575187	949.744710	104.389423	197.603311	959.562319	97.701591	-18.937316	519.981532	33.582962	253.701155	537.749069	-16.269834	-33.358184	122.190499	130.818377	288.827946	132.265836	27.470645	-30.151153	75.495348	167.468180	286.191046	81.182429	58.539732	-46.314817	59.325543	-53.293444	324.102340	94.036340	-160.601001	-66.412226	1473.712571	38.796710	282.961213	1465.991773	37.373612	-147.001765	1192.543004	19.436224	368.682890	1182.750404	12.607833	-180.956035	974.685224	-103.466122	403.028421	946.791704	-108.735830
807	8.06000	121.121079	955.807997	101.796309	105.235374	1533.447847	17.299405	97.826474	1687.238622	-75.308500	45.147729	950.874173	104.905902	197.093949	960.741777	98.686643	-16.504434	520.130350	36.595972	252.731659	538.538077	-14.595176	-30.784837	122.167932	134.042861	288.288446	132.633872	27.619531	-27.798060	75.456742	170.744466	285.716622	81.437263	58.532150	-42.326415	59.375986	-50.107527	323.323729	94.797449	-160.640604	-67.982000	1474.540022	40.147573	281.618662	1467.932521	39.479157	-145.030330	1192.109254	20.266075	367.326071	1184.399953	14.999612	-172.590075	973.783354	-104.608434	400.777544	947.936331	-106.390015
808	8.07000	120.652669	956.962458	102.547076	103.664088	1534.841446	19.220860	95.980357	1688.953493	-73.138438	44.720272	952.003635	105.422381	196.584587	961.921235	99.671695	-14.071551	520.279169	39.608982	251.762163	539.327084	-12.920518	-28.211489	122.145365	137.267344	287.748947	133.001909	27.768418	-25.444967	75.418136	174.020751	285.242199	81.692096	58.524568	-38.338013	59.426428	-46.921609	322.545117	95.558559	-160.680207	-69.551774	1475.367473	41.498436	280.276112	1469.873269	41.584701	-143.058896	1191.675504	21.095925	365.969252	1186.049502	17.391391	-164.224115	972.881484	-105.750747	398.526668	949.080957	-104.044199
809	8.08000	120.184260	958.116918	103.297843	102.092803	1536.235045	21.142315	94.134239	1690.668365	-70.968377	44.292815	953.133098	105.938860	196.075225	963.100693	100.656748	-11.638668	520.427987	42.621992	250.792668	540.116092	-11.245859	-25.638141	122.122798	140.491827	287.209448	133.369946	27.917304	-23.091875	75.379531	177.297037	284.767776	81.946929	58.516985	-34.349611	59.476870	-43.735692	321.766506	96.319668	-160.719810	-71.121548	1476.194924	42.849299	278.933561	1471.814016	43.690245	-141.087461	1191.241754	21.925776	364.612433	1187.699051	19.783171	-155.858155	971.979614	-106.893060	396.275792	950.225584	-101.698384
810	8.09000	119.715850	959.271379	104.048609	100.521517	1537.628644	23.063769	92.288122	1692.383236	-68.798315	43.865357	954.262561	106.455339	195.565863	964.280151	101.641800	-9.205786	520.576806	45.635003	249.823172	540.905100	-9.571201	-23.064794	122.100231	143.716311	286.669948	133.737982	28.066190	-20.738782	75.340925	180.573322	284.293353	82.201763	58.509403	-30.361209	59.527313	-40.549775	320.987894	97.080778	-160.759413	-72.691322	1477.022375	44.200162	277.591011	1473.754764	45.795789	-139.116026	1190.808004	22.755626	363.255614	1189.348600	22.174950	-147.492195	971.077744	-108.035373	394.024916	951.370210	-99.352568
811	8.10000	119.247440	960.425839	104.799376	98.950231	1539.022243	24.985224	90.442005	1694.098107	-66.628253	43.437900	955.392024	106.971818	195.056501	965.459609	102.626852	-6.772903	520.725624	48.648013	248.853676	541.694107	-7.896543	-20.491446	122.077664	146.940794	286.130449	134.106019	28.215077	-18.385689	75.302319	183.849608	283.818930	82.456596	58.501821	-26.372807	59.577755	-37.363857	320.209283	97.841887	-160.799016	-74.261097	1477.849826	45.551026	276.248460	1475.695512	47.901333	-137.144592	1190.374254	23.585477	361.898795	1190.998149	24.566730	-139.126235	970.175874	-109.177686	391.774039	952.514836	-97.006752
812	8.11000	118.779030	961.580299	105.550143	97.378945	1540.415842	26.906679	88.595888	1695.812979	-64.458192	43.010443	956.521487	107.488297	194.547139	966.639067	103.611904	-4.340021	520.874443	51.661023	247.884181	542.483115	-6.221884	-17.918099	122.055096	150.165278	285.590949	134.474056	28.363963	-16.032597	75.263714	187.125893	283.344507	82.711430	58.494239	-22.384405	59.628197	-34.177940	319.430671	98.602997	-160.838619	-75.830871	1478.677277	46.901889	274.905910	1477.636259	50.006878	-135.173157	1189.940504	24.415327	360.541977	1192.647698	26.958509	-130.760274	969.274005	-110.319999	389.523163	953.659463	-94.660937
813	8.12000	119.058890	962.042199	106.384686	96.731803	1541.062494	28.664930	87.779186	1696.743651	-62.452792	43.257326	956.976529	108.165595	194.860024	967.107827	104.603702	-2.169042	520.808968	55.000967	249.362270	543.059136	-5.198886	-15.033915	121.802215	153.468581	287.598364	134.830424	28.643072	-13.214653	74.980770	190.440416	285.299328	82.963324	58.632132	-18.574826	59.515546	-30.893210	322.240849	99.506178	-160.458727	-76.533900	1478.950377	47.892440	274.393269	1478.580309	52.260184	-133.468317	1189.703059	25.204670	360.163010	1193.622234	29.966948	-124.054433	969.075475	-110.378575	389.274237	954.578573	-91.001638
